<?xml version="1.0" encoding="UTF-8" standalone="no"?>
<!DOCTYPE svg PUBLIC "-//W3C//DTD SVG 1.1//EN" "http://www.w3.org/Graphics/SVG/1.1/DTD/svg11.dtd">
<svg width="100%" height="100%" viewBox="0 0 387 384" version="1.1" xmlns="http://www.w3.org/2000/svg" xmlns:xlink="http://www.w3.org/1999/xlink" xml:space="preserve" xmlns:serif="http://www.serif.com/" style="fill-rule:evenodd;clip-rule:evenodd;stroke-linejoin:round;stroke-miterlimit:2;">
    <g transform="matrix(0.346766,0,0,0.346766,-155.305,-155.266)">
        <g>
            <g>
                <path d="M1376.08,949.8C1353.67,780.45 1219.62,646.34 1050.27,623.93L1000.36,507.41L949.83,623.87C780.43,646.28 646.32,780.33 623.91,949.68L507.45,999.6L623.86,1050.19C646.27,1219.54 780.38,1353.65 949.73,1376.11L999.59,1492.57L1050.12,1376.11C1219.52,1353.76 1353.63,1219.65 1376.1,1050.3L1492.56,1000.39L1376.08,949.8ZM1364.26,1024.25L1349.47,1030.58L1348.91,1030.8L1343.25,1033.21L1348.01,1044.3C1338.37,1121.22 1303.75,1192.36 1248.02,1248.04C1192.34,1303.72 1121.25,1338.4 1044.33,1348.03L1033.24,1343.21L1030.78,1348.92L1030.5,1349.48L1024.11,1364.33L1017.72,1378.95L999.79,1420.29L982.03,1378.95L975.76,1364.33L969.43,1349.48L969.21,1348.92L966.75,1343.26L955.6,1348.02C878.74,1338.38 807.6,1303.71 751.91,1248.03C696.23,1192.35 661.61,1121.26 651.97,1044.34L656.79,1033.25L651.08,1030.79L650.52,1030.51L635.68,1024.07L621,1017.74L579.66,999.76L621,982.06L635.68,975.79L650.52,969.4L651.08,969.18L656.68,966.77L651.97,955.68C661.61,878.77 696.23,807.68 751.91,751.94C807.59,696.26 878.74,661.58 955.6,651.95L966.75,656.77L969.21,651.11L969.43,650.49L975.87,635.7L982.26,621.02L1000.19,579.68L1017.89,621.02L1024.16,635.7L1030.55,650.49L1030.77,651.11L1033.18,656.71L1044.27,651.95C1121.18,661.59 1192.33,696.26 1248.01,751.94C1303.75,807.68 1338.37,878.77 1348,955.68L1343.18,966.77L1348.89,969.23L1349.45,969.45L1364.24,975.89L1378.92,982.28L1420.26,1000.21L1378.92,1017.97L1364.26,1024.25Z" style="fill:rgb(75,83,32);fill-rule:nonzero;"/>
            </g>
            <g>
                <g>
                    <path d="M978.34,1363.24L971.81,1347.89L968.2,1339.61L955.19,1345.16C878.55,1335.39 808.96,1301.13 753.89,1246.06C698.86,1191.03 664.62,1121.43 654.85,1044.76L660.48,1031.79L652.19,1028.22L651.77,1028.01L636.79,1021.5L622.11,1015.17L586.72,999.78L636.77,978.36L660.34,968.24L654.84,955.27C664.61,878.62 698.85,809 753.88,753.91C808.95,698.84 878.55,664.59 955.18,654.81L968.19,660.43L971.77,652.2L972.06,651.43L984.83,622.11L1000.17,586.73L1021.59,636.77L1027.98,651.57L1028.14,652.03L1031.71,660.35L1044.68,654.79C1121.35,664.56 1190.96,698.82 1246.04,753.89C1301.11,808.96 1335.37,878.57 1345.14,955.24L1339.51,968.21L1348.43,972.03L1377.82,984.83L1413.21,1000.18L1377.83,1015.38L1339.57,1031.71L1345.14,1044.69C1335.36,1121.43 1301.1,1191.04 1246.04,1246.05C1190.96,1301.13 1121.37,1335.38 1044.74,1345.15L1031.78,1339.52L1028.2,1347.81L1027.99,1348.21L1021.53,1363.22L1015.15,1377.83L999.8,1413.23L978.34,1363.24Z" style="fill-rule:nonzero;"/>
                </g>
                <g>
                    <path d="M1000.16,593.84L1012.74,623.23L1019.02,637.93L1025.34,652.57L1025.51,653.03L1025.56,653.18L1025.62,653.33L1028.03,658.93L1030.24,664.07L1035.38,661.86L1045.07,657.7C1120.82,667.52 1189.6,701.46 1244.04,755.91C1298.49,810.36 1332.42,879.12 1342.24,954.87L1338.04,964.55L1335.8,969.7L1340.96,971.92L1346.81,974.44L1347.21,974.6L1362,981.04L1376.68,987.43L1406.11,1000.19L1376.7,1012.82L1362.02,1019.1L1347.35,1025.38L1346.68,1025.65L1341.02,1028.06L1335.85,1030.26L1338.07,1035.42L1342.23,1045.11C1332.4,1120.93 1298.47,1189.7 1244.02,1244.08C1189.57,1298.53 1120.82,1332.47 1045.11,1342.28L1035.43,1338.08L1030.28,1335.84L1028.06,1341L1025.66,1346.57L1025.38,1347.13L1025.32,1347.28L1018.95,1362.1L1012.56,1376.73L999.8,1406.16L987.17,1376.75L980.9,1362.14L974.62,1347.41L974.33,1346.69L971.87,1341.03L969.65,1335.93L964.54,1338.11L954.79,1342.27C879.07,1332.45 810.31,1298.51 755.87,1244.06C701.46,1189.65 667.54,1120.9 657.72,1045.15L661.92,1035.47L664.16,1030.32L659,1028.1L653.43,1025.7L652.87,1025.42L652.73,1025.36L637.87,1018.91L623.21,1012.59L593.77,999.79L623.18,987.2L637.87,980.92L652.58,974.59L653.27,974.31L658.87,971.9L663.99,969.7L661.81,964.57L657.7,954.87C667.52,879.14 701.44,810.35 755.85,755.88C810.29,701.44 879.05,667.5 954.76,657.68L964.5,661.89L969.63,664.11L971.86,658.99L974.32,653.33L974.39,653.17L974.45,653.01L974.61,652.56L980.98,637.93L987.37,623.25L1000.16,593.84M1000.19,579.68L982.26,621.02L975.87,635.7L969.43,650.49L969.21,651.11L966.75,656.77L955.6,651.95C878.74,661.59 807.6,696.26 751.91,751.94C696.23,807.68 661.61,878.77 651.97,955.68L656.68,966.77L651.08,969.18L650.52,969.4L635.68,975.79L621,982.07L579.66,999.77L621,1017.75L635.68,1024.08L650.52,1030.52L651.08,1030.8L656.79,1033.26L651.97,1044.35C661.61,1121.26 696.23,1192.35 751.91,1248.04C807.59,1303.72 878.74,1338.4 955.6,1348.03L966.75,1343.27L969.21,1348.93L969.43,1349.49L975.76,1364.34L982.03,1378.96L999.79,1420.3L1017.72,1378.96L1024.11,1364.34L1030.5,1349.49L1030.78,1348.93L1033.24,1343.22L1044.33,1348.04C1121.24,1338.4 1192.33,1303.73 1248.02,1248.05C1303.76,1192.37 1338.38,1121.22 1348.01,1044.31L1343.25,1033.22L1348.91,1030.81L1349.47,1030.59L1364.26,1024.26L1378.94,1017.99L1420.28,1000.23L1378.94,982.3L1364.26,975.91L1349.47,969.47L1348.91,969.25L1343.2,966.79L1348.02,955.7C1338.38,878.79 1303.76,807.7 1248.03,751.96C1192.35,696.28 1121.2,661.6 1044.29,651.97L1033.2,656.73L1030.79,651.13L1030.57,650.51L1024.18,635.72L1017.91,621.04L1000.19,579.68Z" style="fill-rule:nonzero;"/>
                </g>
            </g>
            <g>
                <g>
                    <path d="M999.47,1535.03L937.98,1391.38C769.8,1364.88 635,1230.02 608.57,1061.87L465.03,999.5L608.63,937.96C635.08,769.81 769.93,635.03 938.15,608.6L1000.46,464.97L1062.01,608.66C1230.15,635.11 1364.93,769.94 1391.37,938.12L1534.97,1000.49L1391.36,1062.03C1364.85,1230.24 1229.97,1365.02 1061.79,1391.4L999.47,1535.03ZM493.31,999.57L618.72,1054.06L619.18,1057.13C643.87,1222.92 776.92,1356.01 942.74,1380.77L945.83,1381.24L999.55,1506.73L1053.99,1381.25L1057.07,1380.79C1222.89,1356.16 1356,1223.13 1380.77,1057.29L1381.23,1054.2L1506.7,1000.43L1381.23,945.93L1380.77,942.86C1356.08,777.04 1223.05,643.97 1057.27,619.27L1054.18,618.81L1000.4,493.28L945.96,618.75L942.89,619.21C777.04,643.9 643.95,776.93 619.25,942.71L618.79,945.8L493.31,999.57Z" style="fill-rule:nonzero;"/>
                </g>
            </g>
        </g>
        <g>
            <path d="M999.97,718.16C844.35,718.16 718.14,844.37 718.14,999.99C718.14,1155.67 844.35,1281.82 999.97,1281.82C1155.65,1281.82 1281.8,1155.66 1281.8,999.99C1281.8,844.37 1155.65,718.16 999.97,718.16ZM999.97,1267.54C852.47,1267.54 732.42,1147.55 732.42,999.99C732.42,852.49 852.47,732.44 999.97,732.44C1147.53,732.44 1267.52,852.49 1267.52,999.99C1267.52,1147.55 1147.52,1267.54 999.97,1267.54Z" style="fill:white;fill-rule:nonzero;"/>
        </g>
        <circle cx="999.97" cy="999.99" r="267.55" style="fill:rgb(75,83,32);"/>
        <path d="M1166.09,895.73L1000,799.1L833.91,895.73C889.35,927.84 944.78,959.96 1000.22,992.07C1055.51,959.96 1110.8,927.85 1166.09,895.73Z" style="fill:white;fill-rule:nonzero;"/>
        <path d="M1011.94,1014.32L1179.95,915.59L1179.95,1110.02C1124.05,1142.51 1068.15,1175.01 1012.25,1207.5C1012.15,1143.11 1012.05,1078.71 1011.94,1014.32Z" style="fill:white;fill-rule:nonzero;"/>
        <path d="M988.02,1014.32L820.01,915.59L820.01,1110.02C875.91,1142.51 931.81,1175.01 987.71,1207.5C987.81,1143.11 987.91,1078.71 988.02,1014.32Z" style="fill:white;fill-rule:nonzero;"/>
        <g>
            <path d="M1000,815.06L1138.64,895.72L1073.56,933.52L1000.2,976.13L861.38,895.71L1000,815.06M1000,805.34L844.64,895.72C896.49,925.76 948.35,955.8 1000.2,985.83C1051.92,955.79 1103.64,925.75 1155.35,895.72L1000,805.34Z" style="fill-rule:nonzero;"/>
            <path d="M1165.21,941.29L1165.21,1101.53L1026.95,1181.9L1026.78,1077.41L1026.69,1022.69L1165.21,941.29M1173.62,926.61L1018.28,1017.89C1018.38,1077.42 1018.48,1136.96 1018.57,1196.49C1070.25,1166.45 1121.93,1136.41 1173.61,1106.36L1173.61,926.61L1173.62,926.61Z" style="fill-rule:nonzero;"/>
            <path d="M834.75,941.29L973.27,1022.69L973.18,1077.41L973.01,1181.9L834.75,1101.53L834.75,941.29M826.35,926.61L826.35,1106.37C878.03,1136.41 929.71,1166.45 981.39,1196.5C981.49,1136.97 981.59,1077.43 981.68,1017.9L826.35,926.61Z" style="fill-rule:nonzero;"/>
        </g>
    </g>
</svg>
