<?xml version="1.0" encoding="UTF-8" standalone="no" ?>
<!DOCTYPE svg PUBLIC "-//W3C//DTD SVG 1.1//EN" "http://www.w3.org/Graphics/SVG/1.1/DTD/svg11.dtd">
<svg xmlns="http://www.w3.org/2000/svg" xmlns:xlink="http://www.w3.org/1999/xlink" version="1.1" width="500" height="500" viewBox="0 0 500 500" xml:space="preserve">
<desc>Created with Fabric.js 5.3.0</desc>
<defs>
</defs>
<g transform="matrix(8.2118606927 0 0 7.46 240.4540789013 218.0521091811)" id="PmTfjOv7xToTcP7lMX8U-"  >
<path style="stroke: rgb(196,136,93); stroke-width: 0; stroke-dasharray: none; stroke-linecap: butt; stroke-dashoffset: 0; stroke-linejoin: miter; stroke-miterlimit: 4; fill: rgb(0,0,0); fill-rule: nonzero; opacity: 1;" vector-effect="non-scaling-stroke"  transform=" translate(0, 0)" d="M -31.01737 -31.01737 L 31.01737 -31.01737 L 31.01737 31.01737 L -31.01737 31.01737 z" stroke-linecap="round" />
</g>
<g transform="matrix(1 0 0 -0.2421169776 240.4540780262 59.3339947664)" id="6ySc3kf7Ty8PsctJEZJ4l"  >
<path style="stroke: rgb(255,255,255); stroke-width: 4; stroke-dasharray: none; stroke-linecap: butt; stroke-dashoffset: 0; stroke-linejoin: miter; stroke-miterlimit: 4; fill: rgb(130,123,96); fill-rule: nonzero; opacity: 1;" vector-effect="non-scaling-stroke"  transform=" translate(0.00001, 0)" d="M -78.66508 -85.11656 L 79.26101999999999 -85.11656 L 100.11917999999999 85.11656 L 62.57447999999999 -28.10799999999999 L -61.97856000000001 -28.10799999999999 L -100.1192 85.11656 z" stroke-linecap="round" />
</g>
<g transform="matrix(1 0 0 0.2421169776 240.4540789013 112.9779158707)" id="xo6vkODlQOZJYOth06Jgt"  >
<path style="stroke: rgb(255,255,255); stroke-width: 4; stroke-dasharray: none; stroke-linecap: butt; stroke-dashoffset: 0; stroke-linejoin: miter; stroke-miterlimit: 4; fill: rgb(130,123,96); fill-rule: nonzero; opacity: 1;" vector-effect="non-scaling-stroke"  transform=" translate(0.00001, 0)" d="M -78.66508 -85.11656 L 79.26101999999999 -85.11656 L 100.11917999999999 85.11656 L 62.57447999999999 -28.10799999999999 L -61.97856000000001 -28.10799999999999 L -100.1192 85.11656 z" stroke-linecap="round" />
</g>
<g transform="matrix(0 1 0.2421169776 0 251.6459728039 90.3697516198)" id="sDipm5NMGQyb_hoPYzrCv"  >
<path style="stroke: rgb(255,255,255); stroke-width: 4; stroke-dasharray: none; stroke-linecap: butt; stroke-dashoffset: 0; stroke-linejoin: miter; stroke-miterlimit: 4; fill: rgb(75,83,32); fill-rule: nonzero; opacity: 1;" vector-effect="non-scaling-stroke"  transform=" translate(0, 0.000005)" d="M -78.96305 -70.34814 L -73.59952 -119.57621 L -62.239869999999996 -70.34814 L 78.96305000000001 -70.34814 L 78.96305000000001 -35.49221 L 62.276520000000005 -13.339580000000002 L -62.27651999999999 -13.339580000000002 L -70.02383999999999 119.57620000000001 z" stroke-linecap="round" />
</g>
<g transform="matrix(1 0 0 0.2421169776 103.5831739174 264.8156147852)" id="0T2AB9Vj5E6TS7BaIL2gG"  >
<path style="stroke: rgb(255,255,255); stroke-width: 4; stroke-dasharray: none; stroke-linecap: butt; stroke-dashoffset: 0; stroke-linejoin: miter; stroke-miterlimit: 4; fill: rgb(240,230,140); fill-rule: nonzero; opacity: 1;" vector-effect="non-scaling-stroke"  transform=" translate(0.00001, 0)" d="M -78.66508 -85.11656 L 79.26101999999999 -85.11656 L 100.11917999999999 85.11656 L 62.57447999999999 -28.10799999999999 L -61.97856000000001 -28.10799999999999 L -100.1192 85.11656 z" stroke-linecap="round" />
</g>
<g transform="matrix(1 0 0 -0.2421169776 103.5831830423 209.2613835576)" id="-_plnGY-2gkyrpmqQ_yJo"  >
<path style="stroke: rgb(255,255,255); stroke-width: 4; stroke-dasharray: none; stroke-linecap: butt; stroke-dashoffset: 0; stroke-linejoin: miter; stroke-miterlimit: 4; fill: rgb(240,230,140); fill-rule: nonzero; opacity: 1;" vector-effect="non-scaling-stroke"  transform=" translate(0.00001, 0)" d="M -78.66508 -85.11656 L 79.26101999999999 -85.11656 L 100.11917999999999 85.11656 L 62.57447999999999 -28.10799999999999 L -61.97856000000001 -28.10799999999999 L -100.1192 85.11656 z" stroke-linecap="round" />
</g>
<g transform="matrix(0 1 0.2421169776 0 114.77507782 240.5595258838)" id="VIjQty4KRTo_bko3K4HDj"  >
<path style="stroke: rgb(255,255,255); stroke-width: 4; stroke-dasharray: none; stroke-linecap: butt; stroke-dashoffset: 0; stroke-linejoin: miter; stroke-miterlimit: 4; fill: rgb(212,191,145); fill-rule: nonzero; opacity: 1;" vector-effect="non-scaling-stroke"  transform=" translate(0, 0.000005)" d="M -78.96305 -70.34814 L -73.59952 -119.57621 L -62.239869999999996 -70.34814 L 78.96305000000001 -70.34814 L 78.96305000000001 -35.49221 L 62.276520000000005 -13.339580000000002 L -62.27651999999999 -13.339580000000002 L -70.02383999999999 119.57620000000001 z" stroke-linecap="round" />
</g>
<g transform="matrix(1 0 0 -0.2421169776 381.7165947916 180.2046401347)" id="qmWp_zloruoGNbhS4LP21"  >
<path style="stroke: rgb(0,0,0); stroke-width: 0; stroke-dasharray: none; stroke-linecap: butt; stroke-dashoffset: 0; stroke-linejoin: miter; stroke-miterlimit: 4; fill: rgb(240,230,140); fill-rule: nonzero; opacity: 1;" vector-effect="non-scaling-stroke"  transform=" translate(0.00001, 0)" d="M -78.66508 -85.11656 L 79.26101999999999 -85.11656 L 100.11917999999999 85.11656 L 62.57447999999999 -28.10799999999999 L -61.97856000000001 -28.10799999999999 L -100.1192 85.11656 z" stroke-linecap="round" />
</g>
<g transform="matrix(0 1 0.2421169776 0 392.9084899048 210.6200495935)" id="tA0OCc2t1eGs5yEwk0bsz"  >
<path style="stroke: rgb(0,0,0); stroke-width: 0; stroke-dasharray: none; stroke-linecap: butt; stroke-dashoffset: 0; stroke-linejoin: miter; stroke-miterlimit: 4; fill: rgb(75,83,32); fill-rule: nonzero; opacity: 1;" vector-effect="non-scaling-stroke"  transform=" translate(0, 0.000005)" d="M -78.96305 -70.34814 L -73.59952 -119.57621 L -62.239869999999996 -70.34814 L 78.96305000000001 -70.34814 L 78.96305000000001 -35.49221 L 62.276520000000005 -13.339580000000002 L -62.27651999999999 -13.339580000000002 L -70.02383999999999 119.57620000000001 z" stroke-linecap="round" />
</g>
<g transform="matrix(0.7308567811 0 0 0.1945728189 225.0195617318 403.9111561013)" id="lkk3MPHumu1Rh2CvFZpdB"  >
<path style="stroke: rgb(0,0,0); stroke-width: 0; stroke-dasharray: none; stroke-linecap: butt; stroke-dashoffset: 0; stroke-linejoin: miter; stroke-miterlimit: 4; fill: rgb(175,175,169); fill-rule: nonzero; opacity: 1;" vector-effect="non-scaling-stroke"  transform=" translate(0.00001, 0)" d="M -78.66508 -85.11656 L 79.26101999999999 -85.11656 L 100.11917999999999 85.11656 L 62.57447999999999 -28.10799999999999 L -61.97856000000001 -28.10799999999999 L -100.1192 85.11656 z" stroke-linecap="round" />
</g>
<g transform="matrix(1 0 0 0.2421169776 381.7165947916 235.1385239678)" id="Pxsr1Kxlyt3pPZrRlivkL"  >
<path style="stroke: rgb(0,0,0); stroke-width: 0; stroke-dasharray: none; stroke-linecap: butt; stroke-dashoffset: 0; stroke-linejoin: miter; stroke-miterlimit: 4; fill: rgb(178,180,179); fill-rule: nonzero; opacity: 1;" vector-effect="non-scaling-stroke"  transform=" translate(0.00001, 0)" d="M -78.66508 -85.11656 L 79.26101999999999 -85.11656 L 100.11917999999999 85.11656 L 62.57447999999999 -28.10799999999999 L -61.97856000000001 -28.10799999999999 L -100.1192 85.11656 z" stroke-linecap="round" />
</g>
<g transform="matrix(1 0 0 -0.2421169776 228.426963404 318.9049125256)" id="66pX3kzWsC4GM0vhesvML"  >
<path style="stroke: rgb(0,0,0); stroke-width: 0; stroke-dasharray: none; stroke-linecap: butt; stroke-dashoffset: 0; stroke-linejoin: miter; stroke-miterlimit: 4; fill: rgb(64,88,47); fill-rule: nonzero; opacity: 1;" vector-effect="non-scaling-stroke"  transform=" translate(0.00001, 0)" d="M -78.66508 -85.11656 L 79.26101999999999 -85.11656 L 100.11917999999999 85.11656 L 62.57447999999999 -28.10799999999999 L -61.97856000000001 -28.10799999999999 L -100.1192 85.11656 z" stroke-linecap="round" />
</g>
<g transform="matrix(0 1 0.2421169776 0 240.4540789013 357.0920400583)" id="4DXMXEBpcdQE1TGl9h37N"  >
<path style="stroke: rgb(0,0,0); stroke-width: 0; stroke-dasharray: none; stroke-linecap: butt; stroke-dashoffset: 0; stroke-linejoin: miter; stroke-miterlimit: 4; fill: rgb(217,213,118); fill-rule: nonzero; opacity: 1;" vector-effect="non-scaling-stroke"  transform=" translate(0, 0.000005)" d="M -78.96305 -70.34814 L -73.59952 -119.57621 L -62.239869999999996 -70.34814 L 78.96305000000001 -70.34814 L 78.96305000000001 -35.49221 L 62.276520000000005 -13.339580000000002 L -62.27651999999999 -13.339580000000002 L -70.02383999999999 119.57620000000001 z" stroke-linecap="round" />
</g>
<g transform="matrix(1 0 0 0.2421169776 228.426964279 374.4591437533)" id="bboQIwbxLLo_8wpkTBTiG"  >
<path style="stroke: rgb(0,0,0); stroke-width: 0; stroke-dasharray: none; stroke-linecap: butt; stroke-dashoffset: 0; stroke-linejoin: miter; stroke-miterlimit: 4; fill: rgb(175,175,169); fill-rule: nonzero; opacity: 1;" vector-effect="non-scaling-stroke"  transform=" translate(0.00001, 0)" d="M -78.66508 -85.11656 L 79.26101999999999 -85.11656 L 100.11917999999999 85.11656 L 62.57447999999999 -28.10799999999999 L -61.97856000000001 -28.10799999999999 L -100.1192 85.11656 z" stroke-linecap="round" />
</g>
<g transform="matrix(1 0 0 1 31.8610129344 -78.4116028053)" id="-RPRDXy-H5hBdMlVmH05I"  >
<path style="stroke: rgb(255,255,255); stroke-width: 0; stroke-dasharray: none; stroke-linecap: butt; stroke-dashoffset: 0; stroke-linejoin: miter; stroke-miterlimit: 4; fill: rgb(212,191,145); fill-rule: nonzero; opacity: 1;" vector-effect="non-scaling-stroke"  transform=" translate(-30.3970198921, -30.3970198921)" d="M 0 0 L 60.79404 0 L 60.79404 60.79404 L 0 60.79404 z" stroke-linecap="round" />
</g>
<g transform="matrix(1 0 0 1 103.5831739174 -78.4116026974)" id="IiHjwQX3Je6iOLE7LxgOI"  >
<path style="stroke: rgb(255,255,255); stroke-width: 0; stroke-dasharray: none; stroke-linecap: butt; stroke-dashoffset: 0; stroke-linejoin: miter; stroke-miterlimit: 4; fill: rgb(75,83,32); fill-rule: nonzero; opacity: 1;" vector-effect="non-scaling-stroke"  transform=" translate(-30.39702, -30.39702)" d="M 0 0 L 60.79404 0 L 60.79404 60.79404 L 0 60.79404 z" stroke-linecap="round" />
</g>
<g transform="matrix(1 0 0 1 179.0275932216 -78.4116029131)" id="X9aH9sAAKXttilYdyqkHm"  >
<path style="stroke: rgb(255,255,255); stroke-width: 0; stroke-dasharray: none; stroke-linecap: butt; stroke-dashoffset: 0; stroke-linejoin: miter; stroke-miterlimit: 4; fill: rgb(130,123,96); fill-rule: nonzero; opacity: 1;" vector-effect="non-scaling-stroke"  transform=" translate(-30.39702, -30.39702)" d="M 0 0 L 60.79404 0 L 60.79404 60.79404 L 0 60.79404 z" stroke-linecap="round" />
</g>
<g transform="matrix(1 0 0 1 252.2003821514 -78.4116029131)" id="gw3hCZVR9m6_VSTtBhMut"  >
<path style="stroke: rgb(255,255,255); stroke-width: 0; stroke-dasharray: none; stroke-linecap: butt; stroke-dashoffset: 0; stroke-linejoin: miter; stroke-miterlimit: 4; fill: rgb(240,230,140); fill-rule: nonzero; opacity: 1;" vector-effect="non-scaling-stroke"  transform=" translate(-30.39702, -30.39702)" d="M 0 0 L 60.79404 0 L 60.79404 60.79404 L 0 60.79404 z" stroke-linecap="round" />
</g>
</svg>